<?xml version="1.0" standalone="no"?><!DOCTYPE svg PUBLIC "-//W3C//DTD SVG 1.1//EN" "http://www.w3.org/Graphics/SVG/1.1/DTD/svg11.dtd"><svg t="1734597726207" class="icon" viewBox="0 0 1170 1024" version="1.1" xmlns="http://www.w3.org/2000/svg" p-id="7933" xmlns:xlink="http://www.w3.org/1999/xlink" width="228.515625" height="200"><path d="M170.642286 518.802286h390.144V640.731429h48.713143V518.802286h390.144v146.285714h48.713142V470.089143h-438.857142V372.516571h-48.713143v97.572572h-438.857143v194.998857h48.713143v-146.285714zM268.214857 713.874286H24.356571a24.356571 24.356571 0 0 0-24.356571 24.356571v195.072c0 13.458286 10.971429 24.356571 24.356571 24.356572h243.858286c13.458286 0 24.356571-10.971429 24.356572-24.356572v-195.072a24.356571 24.356571 0 0 0-24.356572-24.356571z m438.857143 0H463.213714a24.356571 24.356571 0 0 0-24.356571 24.356571v195.072c0 13.458286 10.971429 24.356571 24.356571 24.356572h243.858286c13.458286 0 24.356571-10.971429 24.356571-24.356572v-195.072a24.356571 24.356571 0 0 0-24.356571-24.356571z m438.857143 0h-243.858286a24.356571 24.356571 0 0 0-24.356571 24.356571v195.072c0 13.458286 10.971429 24.356571 24.356571 24.356572h243.858286c13.458286 0 24.356571-10.971429 24.356571-24.356572v-195.072a24.356571 24.356571 0 0 0-24.356571-24.356571zM390.070857 299.373714h390.144c13.458286 0 24.356571-10.898286 24.356572-24.356571V79.945143a24.356571 24.356571 0 0 0-24.356572-24.356572H390.070857A24.356571 24.356571 0 0 0 365.714286 79.945143V275.017143c0 13.458286 10.971429 24.356571 24.356571 24.356571z" fill="#26D36A" p-id="7934"></path></svg>